# 3ds Max Wavefront OBJ Exporter v0.97b - (c)2007 guruware
# File Created: 27.02.2016 16:02:31

mtllib Medical Scissors_06_OBJ.mtl

#
# object Line001
#

v  -0.0151 -3.7905 -0.0113
v  -0.0151 -3.7905 -0.0069
v  -0.2306 -3.5610 -0.0234
v  -0.2306 -3.5610 -0.0304
v  0.3137 -3.6063 -0.0254
v  0.3137 -3.6063 -0.0191
v  0.1909 -3.7881 -0.0086
v  0.1909 -3.7881 -0.0132
v  0.3449 -0.9228 -0.0468
v  0.3449 -0.9228 -0.0375
v  0.3872 -1.7937 -0.0363
v  0.3872 -1.7937 -0.0454
v  -0.1004 1.3554 -0.0197
v  -0.1004 1.3554 -0.0142
v  0.3421 1.6460 -0.0142
v  0.3421 1.6460 -0.0197
v  -0.1113 1.2967 -0.0203
v  -0.1113 1.2967 -0.0147
v  -0.1108 1.3361 -0.0143
v  -0.1108 1.3361 -0.0198
v  -0.3031 -1.7373 -0.1080
v  -0.3465 -1.7373 -0.0430
v  -0.2619 -0.8745 -0.0320
v  -0.2184 -0.8745 -0.0854
v  -0.0151 -3.7905 0.0197
v  -0.0151 -3.7905 0.0458
v  -0.2306 -3.5610 0.0620
v  -0.2306 -3.5610 0.0197
v  0.3137 -3.6063 0.0197
v  0.3137 -3.6063 0.0577
v  0.1909 -3.7881 0.0475
v  0.1909 -3.7881 0.0197
v  0.3449 -0.9228 0.0195
v  0.3449 -0.9228 0.0756
v  0.3872 -1.7937 0.0743
v  0.3872 -1.7937 0.0195
v  -0.1004 1.3554 0.0197
v  -0.1004 1.3554 0.0529
v  0.3421 1.6460 0.0529
v  0.3421 1.6460 0.0197
v  -0.1113 1.2967 0.0197
v  -0.1113 1.2967 0.0535
v  -0.1108 1.3361 0.0531
v  -0.1108 1.3361 0.0197
v  -0.3634 -1.7373 0.0197
v  -0.3465 -1.7373 0.0806
v  -0.2619 -0.8745 0.0697
v  -0.2619 -0.8745 0.0197
v  -0.3553 -3.1953 -0.0711
v  -0.3661 -2.6002 -0.1137
v  0.4212 -2.6637 -0.0463
v  0.3847 -3.4323 -0.0424
v  0.3137 -3.6063 0.0647
v  -0.2306 -3.5610 0.0697
v  -0.0151 -3.7905 0.0506
v  0.1909 -3.7881 0.0526
v  -0.3987 -3.1953 -0.0250
v  -0.4095 -2.6002 -0.0458
v  -0.1264 -0.0116 0.0197
v  -0.1264 -0.0116 -0.0412
v  -0.4264 -2.6002 0.0197
v  -0.3987 -3.1953 0.0197
v  -0.3987 -3.1953 0.0629
v  -0.4095 -2.6002 0.0833
v  -0.1264 -0.0116 0.0905
v  -0.1264 -0.0116 0.0795
v  -0.2184 -0.8745 0.1247
v  -0.1264 -0.0116 -0.0511
v  -0.1186 0.6684 -0.0212
v  -0.1186 0.6684 -0.0279
v  -0.1186 0.6684 0.0599
v  -0.1186 0.6684 0.0197
v  0.3493 1.5947 -0.0209
v  0.3493 1.5947 -0.0152
v  0.3911 0.8165 -0.0289
v  0.3911 0.8165 -0.0368
v  0.3534 -0.0535 -0.0359
v  0.3534 -0.0535 -0.0449
v  0.4212 -2.6637 0.0195
v  0.3847 -3.4323 0.0197
v  0.3847 -3.4323 -0.0337
v  0.4212 -2.6637 -0.0371
v  0.3493 1.5947 0.0197
v  0.3493 1.5947 0.0540
v  0.3911 0.8165 0.0674
v  0.3911 0.8165 0.0197
v  0.3534 -0.0535 0.0741
v  0.3534 -0.0535 0.0196
v  0.3847 -3.4323 0.0818
v  0.3847 -3.4323 0.0721
v  0.4212 -2.6637 0.0751
v  0.4212 -2.6637 0.0853
v  0.3872 -1.7937 0.0844
v  -0.3553 -3.1953 0.1105
v  0.3911 0.8165 0.0761
v  0.3493 1.5947 0.0603
v  -0.1113 1.2967 0.0597
v  -0.1186 0.6684 0.0672
v  0.3534 -0.0535 0.0841
v  0.3449 -0.9228 0.0859
v  -0.3031 -1.7373 0.1473
v  -0.3661 -2.6002 0.1531
v  -0.1004 1.3554 0.0590
v  0.3421 1.6460 0.0590
v  0.3473 1.6440 0.0593
v  0.3473 1.6440 0.0532
v  0.3473 1.6440 -0.0144
v  0.3473 1.6440 0.0197
v  0.3473 1.6440 -0.0199
v  -0.1108 1.3361 0.0592
# 110 vertices

vn -0.7289 -0.6846 0.0000
vn 0.8286 -0.5598 0.0000
vn 0.9998 0.0194 -0.0000
vn 0.9998 0.0194 0.0000
vn 0.9990 0.0438 -0.0000
vn -0.5490 0.8359 0.0000
vn -0.9999 0.0116 -0.0000
vn -0.9999 0.0116 0.0000
vn -0.8274 0.0767 -0.5563
vn -0.9078 0.0811 -0.4115
vn -0.9359 0.1246 -0.3296
vn -0.7717 0.0999 -0.6282
vn 0.9990 0.0438 0.0000
vn -0.9962 0.0871 0.0037
vn -0.9089 0.0811 0.4091
vn -0.9383 0.1246 0.3226
vn -0.9907 0.1360 0.0000
vn 0.0402 -0.0622 -0.9973
vn 0.0838 -0.0323 -0.9960
vn 0.0695 -0.0155 -0.9975
vn 0.0206 -0.0567 -0.9982
vn -0.0003 -0.0884 0.9961
vn 0.0029 -0.1006 0.9949
vn -0.0000 -0.0763 0.9971
vn -0.0089 -0.0606 0.9981
vn -0.7377 -0.0386 -0.6740
vn -0.9274 -0.0442 -0.3714
vn -0.9156 0.0139 -0.4019
vn -0.8419 0.0063 -0.5396
vn -0.9879 0.1551 0.0000
vn -0.9997 0.0226 0.0035
vn -0.9989 -0.0464 0.0000
vn -0.9303 -0.0437 0.3641
vn -0.9166 0.0141 0.3995
vn -0.9876 0.1543 0.0307
vn -0.7808 0.1004 0.6167
vn 0.9989 0.0468 0.0000
vn 0.9989 0.0467 0.0000
vn 1.0000 0.0052 -0.0000
vn 1.0000 0.0047 0.0000
vn 0.9996 -0.0266 0.0000
vn 0.9996 -0.0265 0.0000
vn 1.0000 -0.0042 0.0000
vn 0.9989 -0.0473 0.0000
vn 0.9989 0.0467 -0.0000
vn 1.0000 0.0052 0.0000
vn 1.0000 -0.0041 0.0000
vn -0.9086 -0.4176 0.0000
vn -0.7021 -0.3107 0.6407
vn 0.9258 -0.3781 0.0000
vn 0.0118 -0.9999 0.0000
vn -0.0143 0.0154 -0.9998
vn -0.0135 0.0195 -0.9997
vn -0.0190 0.0133 -0.9997
vn -0.0138 0.0155 -0.9998
vn -0.0190 0.0132 0.9997
vn -0.0135 0.0195 0.9997
vn -0.0143 0.0154 0.9998
vn -0.0137 0.0154 0.9998
vn 0.0189 0.0245 -0.9995
vn 0.0161 0.0359 -0.9992
vn 0.0192 0.0244 0.9995
vn 0.0165 0.0359 0.9992
vn 0.0609 0.0163 -0.9980
vn 0.0739 0.0073 -0.9972
vn 0.0614 0.0163 0.9980
vn 0.0744 0.0072 0.9972
vn 0.0866 0.0044 -0.9962
vn 0.0892 0.0024 -0.9960
vn 0.0871 0.0044 0.9962
vn 0.0897 0.0024 0.9960
vn 0.0843 -0.0323 0.9959
vn 0.0699 -0.0154 0.9974
vn 0.0022 -0.0916 -0.9958
vn 0.0005 -0.1027 -0.9947
vn 0.0410 -0.0626 0.9972
vn 0.0182 -0.0574 0.9982
vn -0.0089 -0.0606 -0.9981
vn -0.0000 -0.0763 -0.9971
vn -0.8344 0.0771 0.5457
vn -0.7485 -0.0380 0.6620
vn -0.8485 0.0068 0.5292
vn 0.9992 0.0396 -0.0000
vn 0.9989 0.0468 -0.0000
vn 1.0000 0.0047 -0.0000
vn -0.9875 0.1543 -0.0307
vn 0.9992 0.0396 0.0000
vn 1.0000 -0.0041 -0.0000
vn -0.9466 -0.3225 0.0000
vn -0.6895 -0.3199 -0.6498
vn 0.3528 0.9357 0.0000
vn 0.3529 0.9357 0.0001
vn -0.8798 0.4754 0.0000
vn 0.3532 0.9356 0.0000
vn 0.3529 0.9357 -0.0000
vn -0.8798 0.4754 -0.0000
vn 0.3529 0.9357 0.0000
vn 0.3528 0.9357 -0.0001
vn -0.0086 0.0124 -0.9999
vn -0.0295 0.0448 -0.9986
vn -0.0209 0.0315 -0.9993
vn -0.0092 0.0124 -0.9999
vn -0.0209 0.0315 0.9993
vn -0.0294 0.0448 0.9986
vn -0.0086 0.0124 0.9999
vn -0.0092 0.0124 0.9999
# 106 vertex normals

g Line001
usemtl wire_008110135
s 1
f 1//1 2//1 3//1 
f 3//1 4//1 1//1 
s 4
f 5//2 6//2 7//2 
f 7//2 8//2 5//2 
s 2
f 9//3 10//4 11//5 
f 11//5 12//5 9//3 
s 4
f 13//6 14//6 15//6 
f 15//6 16//6 13//6 
s 2
f 17//7 18//7 19//8 
f 19//8 20//8 17//7 
s 4
f 21//9 22//10 23//11 
f 23//11 24//12 21//9 
s 1
f 25//1 26//1 27//1 
f 27//1 28//1 25//1 
s 4
f 29//2 30//2 31//2 
f 31//2 32//2 29//2 
s 2
f 33//3 34//4 35//13 
f 35//13 36//5 33//3 
s 4
f 37//6 38//6 39//6 
f 39//6 40//6 37//6 
s 2
f 41//7 42//7 43//7 
f 43//7 44//7 41//7 
s 4
f 45//14 46//15 47//16 
f 47//16 48//17 45//14 
s 16
f 49//18 50//19 51//20 
f 51//20 52//21 49//18 
f 53//22 54//23 55//24 
f 55//24 56//25 53//22 
s 4
f 49//26 57//27 58//28 
f 58//28 50//29 49//26 
f 50//29 58//28 22//10 
f 22//10 21//9 50//29 
f 59//30 60//30 23//11 
f 23//11 48//17 59//30 
f 61//31 62//32 63//33 
f 63//33 64//34 61//31 
f 61//31 64//34 46//15 
f 46//15 45//14 61//31 
f 65//35 66//30 47//16 
f 47//16 67//36 65//35 
s 2
f 68//8 60//8 69//8 
f 69//8 70//7 68//8 
f 59//8 66//8 71//8 
f 71//8 72//7 59//8 
f 73//37 74//38 75//39 
f 75//39 76//40 73//37 
f 76//40 75//39 77//41 
f 77//41 78//42 76//40 
f 78//42 77//41 10//4 
f 10//4 9//3 78//42 
f 79//43 80//44 81//44 
f 81//44 82//43 79//43 
f 79//43 82//43 11//5 
f 11//5 36//5 79//43 
f 83//38 84//45 85//39 
f 85//39 86//46 83//38 
f 86//46 85//39 87//41 
f 87//41 88//41 86//46 
f 88//41 87//41 34//4 
f 34//4 33//3 88//41 
f 89//44 90//44 91//43 
f 91//43 92//47 89//44 
f 92//47 91//43 35//13 
f 35//13 93//13 92//47 
s off
f 62//48 57//48 3//48 
f 3//48 28//48 62//48 
f 54//49 94//49 63//49 
f 63//48 27//48 54//48 
f 5//50 52//50 81//50 
f 81//50 6//50 5//50 
f 80//50 90//50 30//50 
f 30//50 29//50 80//50 
f 8//51 7//51 2//51 
f 2//51 1//51 8//51 
f 32//51 31//51 26//51 
f 26//51 25//51 32//51 
s 16
f 17//52 73//53 76//54 
f 76//54 70//55 17//52 
f 95//56 96//57 97//58 
f 97//58 98//59 95//56 
f 70//55 76//54 78//60 
f 78//60 68//61 70//55 
f 99//62 95//56 98//59 
f 98//59 65//63 99//62 
f 24//64 68//61 78//60 
f 78//60 9//65 24//64 
f 99//62 65//63 67//66 
f 67//66 100//67 99//62 
f 21//68 24//64 9//65 
f 9//65 12//69 21//68 
f 100//67 67//66 101//70 
f 101//70 93//71 100//67 
f 50//19 21//68 12//69 
f 12//69 51//20 50//19 
f 93//71 101//70 102//72 
f 102//72 92//73 93//71 
f 5//74 4//75 49//18 
f 49//18 52//21 5//74 
f 92//73 102//72 94//76 
f 94//76 89//77 92//73 
f 89//77 94//76 54//23 
f 54//23 53//22 89//77 
f 5//74 8//78 1//79 
f 1//79 4//75 5//74 
s 1
f 55//1 54//1 27//1 
f 27//1 26//1 55//1 
s 4
f 53//2 56//2 31//2 
f 31//2 30//2 53//2 
s 2
f 100//4 93//13 35//13 
f 35//13 34//4 100//4 
s 4
f 103//6 104//6 39//6 
f 39//6 38//6 103//6 
s 2
f 98//7 97//7 42//7 
f 42//7 71//8 98//7 
s 4
f 101//80 67//36 47//16 
f 47//16 46//15 101//80 
f 94//81 102//82 64//34 
f 64//34 63//33 94//81 
f 102//82 101//80 46//15 
f 46//15 64//34 102//82 
f 59//30 48//17 47//16 
f 47//16 66//30 59//30 
s 2
f 65//8 98//7 71//8 
f 71//8 66//8 65//8 
f 105//83 96//84 84//45 
f 84//45 106//83 105//83 
f 95//85 99//42 87//41 
f 87//41 85//39 95//85 
f 99//42 100//4 34//4 
f 34//4 87//41 99//42 
f 90//44 80//44 79//43 
f 79//43 91//43 90//44 
f 79//43 36//5 35//13 
f 35//13 91//43 79//43 
s off
f 62//48 28//48 27//48 
f 27//48 63//48 62//48 
f 90//50 89//50 53//50 
f 53//50 30//50 90//50 
f 56//51 55//51 26//51 
f 26//51 31//51 56//51 
s 1
f 25//1 28//1 3//1 
f 3//1 2//1 25//1 
s 4
f 29//2 32//2 7//2 
f 7//2 6//2 29//2 
s 2
f 33//3 36//5 11//5 
f 11//5 10//4 33//3 
s 4
f 37//6 40//6 15//6 
f 15//6 14//6 37//6 
s 2
f 72//7 41//7 18//7 
f 18//7 69//8 72//7 
s 4
f 45//14 48//17 23//11 
f 23//11 22//10 45//14 
f 57//27 62//32 61//31 
f 61//31 58//28 57//27 
f 61//31 45//14 22//10 
f 22//10 58//28 61//31 
f 68//86 24//12 23//11 
f 23//11 60//30 68//86 
s 2
f 59//8 72//7 69//8 
f 69//8 60//8 59//8 
f 107//87 108//83 83//38 
f 83//38 74//38 107//87 
f 86//46 88//41 77//41 
f 77//41 75//39 86//46 
f 88//41 33//3 10//4 
f 10//4 77//41 88//41 
f 52//44 51//88 82//43 
f 82//43 81//44 52//44 
f 51//88 12//5 11//5 
f 11//5 82//43 51//88 
s off
f 49//89 4//89 3//89 
f 3//90 57//90 49//90 
f 80//50 29//50 6//50 
f 6//50 81//50 80//50 
f 32//51 25//51 2//51 
f 2//51 7//51 32//51 
f 109//91 16//91 15//91 
f 15//92 107//92 109//92 
f 13//93 20//93 19//93 
f 19//93 14//93 13//93 
f 108//94 40//94 39//94 
f 39//95 106//95 108//95 
f 37//96 44//96 43//96 
f 43//93 38//93 37//93 
f 106//97 39//97 104//97 
f 104//98 105//98 106//98 
f 38//96 43//96 110//96 
f 110//93 103//93 38//93 
f 107//97 15//97 40//97 
f 40//94 108//94 107//94 
f 14//93 19//93 44//93 
f 44//93 37//93 14//93 
s 16
f 13//99 16//100 109//101 
f 109//101 20//102 13//99 
f 105//103 104//104 103//105 
f 103//105 110//106 105//103 
s 2
f 70//7 69//8 18//7 
f 18//7 17//7 70//7 
f 72//7 71//8 42//7 
f 42//7 41//7 72//7 
f 109//87 107//87 74//38 
f 74//38 73//37 109//87 
f 83//38 108//83 106//83 
f 106//83 84//45 83//38 
s 16
f 20//102 109//101 73//53 
f 73//53 17//52 20//102 
f 96//57 105//103 110//106 
f 110//106 97//58 96//57 
s 2
f 110//7 43//7 42//7 
f 42//7 97//7 110//7 
f 95//85 85//39 84//45 
f 84//45 96//84 95//85 
f 41//7 44//7 19//8 
f 19//8 18//7 41//7 
f 86//46 75//39 74//38 
f 74//38 83//38 86//46 
# 216 faces

#
# object Line002
#

v  0.3389 1.9627 0.0000
v  0.3389 1.9627 0.0088
v  0.3278 1.7774 0.0088
v  0.3278 1.7774 0.0000
v  0.3501 2.7447 0.0000
v  0.3501 2.7447 0.0088
v  0.3501 2.4463 0.0088
v  0.3501 2.4463 0.0000
v  0.3389 3.5433 0.0000
v  0.3389 3.5433 0.0088
v  0.3445 3.2932 0.0088
v  0.3445 3.2932 0.0000
v  0.1653 3.6747 0.0147
v  0.1334 3.6765 0.0196
v  0.3334 3.7932 0.0196
v  0.3338 3.7864 0.0169
v  0.0450 3.5233 0.0147
v  0.0001 3.5211 0.0197
v  -0.0217 3.2843 0.0147
v  -0.0666 3.2821 0.0197
v  0.0005 2.9785 0.0147
v  -0.0444 2.9763 0.0197
v  0.0283 2.6449 0.0147
v  -0.0166 2.6428 0.0197
v  0.0617 2.3225 0.0147
v  0.0168 2.3203 0.0197
v  0.0450 2.0279 0.0147
v  0.0001 2.0257 0.0197
v  0.0061 1.7388 0.0147
v  -0.0388 1.7366 0.0197
v  -0.0106 1.5387 0.0147
v  -0.0555 1.5365 0.0197
v  -0.0513 1.3399 0.0147
v  -0.0537 1.3383 0.0194
v  0.0478 1.6015 0.0000
v  0.0462 1.4068 0.0000
v  0.0478 1.6015 0.0394
v  0.0630 1.7976 0.0394
v  0.0061 1.7388 0.0247
v  -0.0106 1.5387 0.0247
v  0.3336 3.7839 0.0128
v  0.3336 3.7839 0.0088
v  0.3501 3.0430 0.0394
v  0.3501 3.0430 0.0306
v  0.3445 3.2932 0.0306
v  0.3445 3.2932 0.0394
v  0.3501 3.0430 0.0000
v  0.3501 3.0430 0.0088
v  0.3501 2.1480 0.0394
v  0.3501 2.1480 0.0306
v  0.3501 2.4463 0.0306
v  0.3501 2.4463 0.0394
v  0.3501 2.1480 0.0000
v  0.3501 2.1480 0.0088
v  0.3168 1.5937 0.0394
v  0.3168 1.5937 0.0306
v  0.3278 1.7774 0.0306
v  0.3278 1.7774 0.0394
v  0.1823 3.6676 0.0061
v  0.3389 3.5433 0.0394
v  0.3336 3.7839 0.0266
v  0.1823 3.6676 0.0330
v  0.0914 3.5271 0.0394
v  0.0914 3.5271 0.0000
v  0.0442 3.2851 0.0000
v  0.0442 3.2851 0.0394
v  0.0619 2.9943 0.0000
v  0.0619 2.9943 0.0394
v  0.0822 2.6703 0.0000
v  0.3501 2.7447 0.0394
v  0.0822 2.6703 0.0394
v  0.1066 2.3543 0.0000
v  0.1066 2.3543 0.0394
v  0.0944 2.0587 0.0000
v  0.0944 2.0587 0.0394
v  0.0630 1.7976 0.0000
v  0.3389 1.9627 0.0394
v  -0.0513 1.3399 0.0247
v  0.0462 1.4068 0.0394
v  0.1653 3.6747 0.0247
v  0.3338 3.7864 0.0225
v  0.3334 3.7932 0.0198
v  0.1334 3.6765 0.0197
v  0.0450 3.5233 0.0247
v  -0.0217 3.2843 0.0247
v  0.0005 2.9785 0.0247
v  0.0283 2.6449 0.0247
v  0.0617 2.3225 0.0247
v  0.0450 2.0279 0.0247
v  -0.0537 1.3383 0.0199
v  0.3168 1.5937 0.0000
v  0.3153 1.5911 0.0000
v  0.3153 1.5911 0.0394
v  0.3389 1.9627 0.0306
v  0.3501 2.7447 0.0306
v  0.3389 3.5433 0.0306
v  0.3336 3.7839 0.0306
v  0.3168 1.5937 0.0088
v  0.3153 1.5911 0.0306
v  0.3153 1.5911 0.0088
# 100 vertices

vn 0.9982 -0.0599 0.0000
vn 1.0000 -0.0000 0.0000
vn 0.9998 0.0222 0.0000
vn -0.1368 0.2339 -0.9626
vn -0.2169 0.3455 -0.9130
vn -0.1148 0.0983 -0.9885
vn -0.1466 0.1165 -0.9823
vn -0.1121 0.0313 -0.9932
vn -0.1102 -0.0080 -0.9939
vn -0.1102 -0.0092 -0.9939
vn -0.1101 -0.0114 -0.9939
vn -0.1109 0.0063 -0.9938
vn -0.1113 0.0150 -0.9937
vn -0.1110 0.0093 -0.9938
vn -0.8875 -0.0073 -0.4607
vn -0.1117 0.0229 -0.9935
vn -0.2455 0.0020 -0.9694
vn -0.1722 0.0353 -0.9844
vn -0.2696 0.0209 0.9627
vn -0.2658 0.0221 0.9638
vn -0.9998 -0.0222 0.0000
vn -0.4946 0.7547 -0.4310
vn -0.2722 0.4043 -0.8732
vn 0.0016 0.0530 0.9986
vn -0.0031 0.0471 0.9989
vn -0.3053 0.0595 -0.9504
vn -0.2174 0.0607 -0.9742
vn 0.0000 0.0000 1.0000
vn -0.2170 -0.0132 -0.9761
vn -0.2282 -0.0166 -0.9735
vn -0.2287 -0.0143 -0.9734
vn -0.2532 -0.0211 -0.9672
vn -0.2539 -0.0196 -0.9670
vn -0.2910 -0.0301 -0.9563
vn -0.3188 0.0131 -0.9477
vn -0.2940 0.0166 -0.9556
vn -0.3054 0.0367 -0.9515
vn -0.2866 0.0386 -0.9573
vn -0.2696 0.0209 -0.9627
vn -0.2658 0.0221 -0.9638
vn -0.1722 0.0353 0.9844
vn -0.2455 0.0020 0.9694
vn -0.9949 0.1011 0.0000
vn -0.9942 -0.0894 0.0593
vn -0.2169 0.3455 0.9130
vn -0.1368 0.2339 0.9626
vn -0.1466 0.1165 0.9823
vn -0.1148 0.0983 0.9885
vn -0.1121 0.0313 0.9932
vn -0.1102 -0.0080 0.9939
vn -0.1102 -0.0092 0.9939
vn -0.1101 -0.0114 0.9939
vn -0.1109 0.0063 0.9938
vn -0.1113 0.0150 0.9937
vn -0.1110 0.0093 0.9938
vn -0.1117 0.0229 0.9935
vn -0.8875 -0.0073 0.4608
vn 0.0000 0.0000 -1.0000
vn -0.2174 0.0607 0.9742
vn -0.3053 0.0595 0.9504
vn -0.2282 -0.0166 0.9735
vn -0.2170 -0.0132 0.9761
vn -0.2532 -0.0211 0.9672
vn -0.2287 -0.0143 0.9734
vn -0.2910 -0.0301 0.9563
vn -0.2539 -0.0196 0.9670
vn -0.2941 0.0166 0.9556
vn -0.3188 0.0131 0.9477
vn -0.2866 0.0386 0.9573
vn -0.3054 0.0367 0.9515
vn 0.0034 0.0530 -0.9986
vn -0.0030 0.0451 -0.9990
vn -0.3104 0.2466 0.9181
vn -0.3349 0.2577 0.9063
vn -0.9942 -0.0894 -0.0593
vn -0.5040 0.8637 0.0000
vn -0.7591 0.6510 0.0000
vn -0.9632 0.2688 0.0000
vn -0.9974 -0.0725 0.0000
vn -0.9965 -0.0830 0.0000
vn -0.9947 -0.1029 0.0000
vn -0.9984 0.0565 0.0000
vn -0.9911 0.1334 0.0000
vn -0.9965 0.0830 0.0000
vn -1.0000 -0.0088 0.0000
vn 0.9998 0.0209 0.0000
vn 0.8702 -0.4926 0.0000
vn -0.5440 0.7304 0.4131
vn -0.2582 0.4070 0.8762
vn -0.3452 0.2624 -0.9011
vn -0.3104 0.2466 -0.9181
# 91 vertex normals

g Line002
usemtl wire_028149177
s off
f 111//107 112//107 113//107 
f 113//107 114//107 111//107 
f 115//108 116//108 117//108 
f 117//108 118//108 115//108 
f 119//109 120//109 121//109 
f 121//109 122//109 119//109 
f 123//110 124//110 125//110 
f 125//111 126//111 123//111 
f 127//112 128//112 124//112 
f 124//113 123//113 127//113 
f 129//114 130//114 128//114 
f 128//114 127//114 129//114 
f 131//115 132//115 130//115 
f 130//115 129//115 131//115 
f 133//116 134//116 132//116 
f 132//116 131//116 133//116 
f 135//117 136//117 134//117 
f 134//117 133//117 135//117 
f 137//118 138//118 136//118 
f 136//118 135//118 137//118 
f 139//119 140//119 138//119 
f 138//119 137//119 139//119 
f 141//120 142//120 140//120 
f 140//120 139//120 141//120 
f 143//121 144//121 142//121 
f 142//122 141//122 143//122 
f 141//123 145//123 146//123 
f 146//124 143//124 141//124 
f 147//125 148//125 149//125 
f 149//126 150//126 147//126 
f 151//127 152//127 120//127 
f 120//109 119//109 151//109 
f 153//109 154//109 155//109 
f 155//109 156//109 153//109 
f 157//108 158//108 116//108 
f 116//108 115//108 157//108 
f 159//108 160//108 161//108 
f 161//108 162//108 159//108 
f 163//107 164//107 112//107 
f 112//107 111//107 163//107 
f 165//107 166//107 167//107 
f 167//107 168//107 165//107 
f 123//128 126//128 151//128 
f 151//129 169//129 123//129 
f 170//130 171//130 172//130 
f 172//131 173//131 170//131 
f 127//132 174//132 175//132 
f 175//133 129//133 127//133 
f 156//134 170//134 173//134 
f 173//134 176//134 156//134 
f 129//135 175//135 177//135 
f 177//136 131//136 129//136 
f 153//134 156//134 176//134 
f 176//134 178//134 153//134 
f 131//137 177//137 179//137 
f 179//138 133//138 131//138 
f 180//134 153//134 178//134 
f 178//134 181//134 180//134 
f 133//139 179//139 182//139 
f 182//140 135//140 133//140 
f 162//134 180//134 181//134 
f 181//134 183//134 162//134 
f 135//141 182//141 184//141 
f 184//142 137//142 135//142 
f 159//134 162//134 183//134 
f 183//134 185//134 159//134 
f 137//143 184//143 186//143 
f 186//144 139//144 137//144 
f 187//134 159//134 185//134 
f 185//134 148//134 187//134 
f 139//145 186//145 145//145 
f 145//146 141//146 139//146 
f 150//147 188//147 189//147 
f 189//148 147//148 150//148 
f 152//149 151//149 126//149 
f 126//150 125//150 152//150 
f 190//151 191//151 192//151 
f 192//152 193//152 190//152 
f 194//153 190//153 193//153 
f 193//154 128//154 194//154 
f 195//155 194//155 128//155 
f 128//155 130//155 195//155 
f 196//156 195//156 130//156 
f 130//156 132//156 196//156 
f 197//157 196//157 132//157 
f 132//157 134//157 197//157 
f 198//158 197//158 134//158 
f 134//158 136//158 198//158 
f 199//159 198//159 136//159 
f 136//159 138//159 199//159 
f 149//160 199//160 138//160 
f 138//160 140//160 149//160 
f 150//161 149//161 140//161 
f 140//161 142//161 150//161 
f 188//162 150//162 142//162 
f 142//163 200//163 188//163 
f 114//164 201//164 202//164 
f 145//164 114//164 202//164 
f 145//164 202//164 146//164 
f 168//134 187//134 148//134 
f 148//134 147//134 168//134 
f 174//164 119//164 122//164 
f 122//164 175//164 174//164 
f 194//165 195//165 176//165 
f 176//166 173//166 194//166 
f 175//164 122//164 157//164 
f 157//164 177//164 175//164 
f 195//167 196//167 178//167 
f 178//168 176//168 195//168 
f 177//164 157//164 115//164 
f 115//164 179//164 177//164 
f 196//169 197//169 181//169 
f 181//170 178//170 196//170 
f 179//164 115//164 118//164 
f 118//164 182//164 179//164 
f 197//171 198//171 183//171 
f 183//172 181//172 197//172 
f 182//164 118//164 163//164 
f 163//164 184//164 182//164 
f 198//173 199//173 185//173 
f 185//174 183//174 198//174 
f 184//164 163//164 111//164 
f 111//164 186//164 184//164 
f 199//175 149//175 148//175 
f 148//176 185//176 199//176 
f 186//164 111//164 114//164 
f 114//164 145//164 186//164 
f 189//134 203//134 165//134 
f 165//134 168//134 147//134 
f 189//134 165//134 147//134 
f 169//177 151//177 119//177 
f 119//178 174//178 169//178 
f 190//179 194//179 173//179 
f 173//180 172//180 190//180 
f 187//107 168//107 167//107 
f 167//107 204//107 187//107 
f 180//108 162//108 161//108 
f 161//108 205//108 180//108 
f 170//109 156//109 155//109 
f 155//109 206//109 170//109 
f 171//109 170//109 206//109 
f 206//127 207//127 171//127 
f 157//109 122//109 121//109 
f 121//109 158//109 157//109 
f 153//108 180//108 205//108 
f 205//108 154//108 153//108 
f 163//108 118//108 117//108 
f 117//108 164//108 163//108 
f 159//107 187//107 204//107 
f 204//107 160//107 159//107 
f 201//107 114//107 113//107 
f 113//107 208//107 201//107 
f 207//181 192//181 191//181 
f 191//149 171//149 207//149 
f 124//182 193//182 192//182 
f 192//182 125//182 124//182 
f 128//183 128//183 193//183 
f 193//183 124//183 128//183 
f 130//184 130//184 128//184 
f 128//184 128//184 130//184 
f 132//185 132//185 130//185 
f 130//185 130//185 132//185 
f 134//186 134//186 132//186 
f 132//186 132//186 134//186 
f 136//187 136//187 134//187 
f 134//187 134//187 136//187 
f 138//188 138//188 136//188 
f 136//188 136//188 138//188 
f 140//189 140//189 138//189 
f 138//189 138//189 140//189 
f 142//190 142//190 140//190 
f 140//190 140//190 142//190 
f 144//191 200//191 142//191 
f 142//191 142//191 144//191 
f 112//107 204//107 167//107 
f 167//107 113//107 112//107 
f 116//108 205//108 161//108 
f 161//108 117//108 116//108 
f 120//109 206//109 155//109 
f 155//109 121//109 120//109 
f 152//109 207//109 206//109 
f 206//109 120//109 152//109 
f 154//109 158//109 121//109 
f 121//109 155//109 154//109 
f 158//108 154//108 205//108 
f 205//108 116//108 158//108 
f 160//108 164//108 117//108 
f 117//108 161//108 160//108 
f 164//107 160//107 204//107 
f 204//107 112//107 164//107 
f 166//107 208//107 113//107 
f 113//107 167//107 166//107 
f 125//192 192//192 207//192 
f 207//192 152//192 125//192 
f 165//193 203//193 209//193 
f 209//193 166//193 165//193 
f 208//193 210//193 202//193 
f 202//193 201//193 208//193 
f 166//193 209//193 210//193 
f 210//193 208//193 166//193 
f 172//194 171//194 191//194 
f 191//195 190//195 172//195 
f 123//196 169//196 174//196 
f 174//197 127//197 123//197 
# 204 faces

